<?xml version="1.0" encoding="UTF-8" standalone="no"?>
<!DOCTYPE svg PUBLIC "-//W3C//DTD SVG 1.1//EN"
 "http://www.w3.org/Graphics/SVG/1.1/DTD/svg11.dtd">
<!-- Generated by graphviz version 12.1.1 (20240910.0053)
 -->
<!-- Title: INFRA Pages: 1 -->
<svg width="454pt" height="80pt"
 viewBox="0.00 0.00 453.63 80.00" xmlns="http://www.w3.org/2000/svg" xmlns:xlink="http://www.w3.org/1999/xlink">
<g id="graph0" class="graph" transform="scale(1 1) rotate(0) translate(4 76)">
<title>INFRA</title>
<polygon fill="white" stroke="none" points="-4,4 -4,-76 449.63,-76 449.63,4 -4,4"/>
<!-- Vercel Preview Deployment -->
<g id="node1" class="node">
<title>Vercel Preview Deployment</title>
<path fill="#b7e0ff" stroke="black" stroke-width="2" d="M193.06,-72C193.06,-72 12,-72 12,-72 6,-72 0,-66 0,-60 0,-60 0,-12 0,-12 0,-6 6,0 12,0 12,0 193.06,0 193.06,0 199.06,0 205.06,-6 205.06,-12 205.06,-12 205.06,-60 205.06,-60 205.06,-66 199.06,-72 193.06,-72"/>
<text text-anchor="middle" x="102.53" y="-40.2" font-family="Arial" font-size="14.00">Vercel Preview Deployment</text>
<text text-anchor="middle" x="102.53" y="-23.4" font-family="Arial" font-size="14.00">(Vercel::Deployment::Preview)</text>
</g>
<!-- Vercel Production Deployment -->
<g id="node2" class="node">
<title>Vercel Production Deployment</title>
<path fill="#b7e0ff" stroke="black" stroke-width="2" d="M433.63,-72C433.63,-72 235.43,-72 235.43,-72 229.43,-72 223.43,-66 223.43,-60 223.43,-60 223.43,-12 223.43,-12 223.43,-6 229.43,0 235.43,0 235.43,0 433.63,0 433.63,0 439.63,0 445.63,-6 445.63,-12 445.63,-12 445.63,-60 445.63,-60 445.63,-66 439.63,-72 433.63,-72"/>
<text text-anchor="middle" x="334.53" y="-40.2" font-family="Arial" font-size="14.00">Vercel Production Deployment</text>
<text text-anchor="middle" x="334.53" y="-23.4" font-family="Arial" font-size="14.00">(Vercel::Deployment::Production)</text>
</g>
</g>
</svg>
